<svg  viewBox="0 0 512 378" fill="none" >
<g id="Group">
<g id="Group_2">
<path id="Vector" d="M500.698 48.164L464.903 12.37C449.563 -2.97099 423.995 -2.97099 408.655 12.37L210.932 211.798L103.548 104.413C88.207 89.073 62.64 89.073 47.3 104.413L11.506 140.207C-3.83399 155.547 -3.83399 181.115 11.506 196.456L180.252 365.202C187.07 372.02 197.297 377.134 209.228 377.134H210.933C221.16 377.134 231.387 373.725 238.205 365.202L498.994 104.412C516.038 89.072 516.038 63.505 500.698 48.164ZM476.835 80.55L216.045 341.339C214.34 343.044 212.636 343.044 212.636 343.044H210.931C209.226 343.044 207.522 343.044 207.522 341.339L38.776 172.594C35.367 169.185 35.367 165.776 37.071 164.071L72.865 128.277C74.569 126.572 76.274 126.572 76.274 126.572C76.274 126.572 79.683 126.572 79.683 128.277L198.998 247.592C205.816 254.41 216.043 254.41 222.861 247.592L434.22 36.233C437.629 32.824 439.333 32.824 442.743 36.233L478.538 72.027C478.539 73.732 478.539 77.141 476.835 80.55Z" fill="#C034EB"/>
</g>
</g>
</svg>
