<svg viewBox="0 0 512 512" fill="none" >
<g id="Group">
<g id="Group_2">
<path id="Vector" d="M498.344 407.68L348.16 255.787L500.053 103.894C508.587 95.36 512 85.12 512 74.88C512 64.64 508.587 54.4 500.053 47.573L464.213 11.733C448.853 -3.627 423.253 -3.627 407.893 11.733L256 163.627L104.106 11.733C88.746 -3.627 63.146 -3.627 47.786 11.733L11.946 47.573C5.12 54.4 0 64.64 0 74.88C0 85.12 5.12 95.36 11.947 103.893L163.84 255.787L11.946 407.68C-3.414 423.04 -3.414 448.64 11.946 464L47.786 499.84C63.146 515.2 88.746 515.2 104.106 499.84L255.999 347.947L407.891 499.84C414.718 506.667 424.958 511.787 435.198 511.787C445.438 511.787 455.678 508.374 462.505 499.84L498.345 464C505.172 457.173 510.292 446.933 510.292 434.986C510.291 424.746 506.878 414.506 498.344 407.68ZM476.16 440.107L440.32 475.947C436.907 479.36 435.2 479.36 431.786 475.947L267.946 312.107C266.24 308.694 261.119 306.987 256 306.987C250.881 306.987 247.466 308.694 244.054 312.107L80.214 475.947C76.801 479.36 75.094 479.36 71.68 475.947L35.84 440.107C34.134 438.4 34.134 434.987 35.84 431.573L199.68 267.733C203.093 264.32 204.8 260.906 204.8 255.787C204.8 250.667 203.093 247.253 199.68 243.84L35.84 80C34.134 78.294 34.134 76.587 34.134 74.88C34.134 73.173 34.134 71.467 35.84 71.467L71.68 35.627C75.093 32.214 76.8 32.214 80.214 35.627L244.054 199.467C250.881 206.294 261.121 206.294 267.947 199.467L431.787 35.627C435.2 32.214 436.907 32.214 440.321 35.627L476.161 71.467C477.867 73.173 477.867 74.88 477.867 74.88C477.867 76.586 477.867 78.293 476.16 78.293L312.32 242.133C305.493 248.96 305.493 259.2 312.32 266.026L476.16 429.866C477.867 431.573 477.867 433.279 477.867 433.279C477.867 436.693 477.867 438.4 476.16 440.107Z" fill="#C034EB"/>
</g>
</g>
</svg>
