<svg  viewBox="0 0 512 512" fill="none" >
<g id="medal 1" clip-path="url(#clip0)">
<g id="red_bars">
<path id="Vector" d="M151.352 221.248L39.592 431.808L141.08 422.432L190.2 511.744L301.96 301.184L151.352 221.248Z" fill="#C034EB"/>
<g id="Group">
<path id="Vector_2" d="M164.152 450.432C167.288 443.696 164.008 435.648 157.448 432.16L151.016 428.736C144.584 425.072 142.136 416.928 145.64 410.336C149.192 403.632 157.544 401.072 164.248 404.624L182.424 414.272C188.04 417.248 195.08 415.088 197.976 409.44L198.424 408.576C201.752 403.248 199.784 396.208 194.248 393.28L139.88 364.432C133.256 360.912 130.008 352.896 133.096 346.144C136.504 338.96 145.112 336.128 152.04 339.808L202.472 366.576C208.088 369.552 215.128 367.392 218.104 361.776L218.392 361.04L218.472 360.88C221.688 354.992 219.432 347.6 213.496 344.448L185.208 329.44C178.584 325.92 175.336 317.904 178.472 311.072C181.848 303.968 190.488 301.056 197.416 304.736L228.664 321.328C234.504 324.432 241.48 321.84 244.504 315.952C244.552 315.872 244.552 315.872 244.584 315.792C244.632 315.712 244.632 315.712 244.664 315.632C247.848 309.824 246.088 302.592 240.232 299.504L206.52 281.616C199.976 278.144 196.728 270.128 199.816 263.376C203.224 256.192 211.832 253.36 218.76 257.04L301.928 301.184L190.168 511.744L159.368 455.76C161.352 454.416 163.08 452.752 164.152 450.432Z" fill="#C040FF"/>
<path id="Vector_3" d="M360.408 221.248L472.168 431.808L370.68 422.432L321.56 511.744L209.8 301.184L360.408 221.248Z" fill="#C040FF"/>
</g>
<path id="Vector_4" d="M347.608 450.432C344.472 443.696 347.752 435.648 354.312 432.16L360.744 428.736C367.176 425.072 369.624 416.928 366.12 410.336C362.568 403.632 354.216 401.072 347.512 404.624L329.336 414.272C323.72 417.248 316.68 415.088 313.784 409.44L313.336 408.576C310.008 403.248 311.976 396.208 317.512 393.28L371.896 364.416C378.52 360.896 381.768 352.88 378.68 346.128C375.272 338.944 366.664 336.112 359.736 339.792L309.304 366.56C303.688 369.536 296.648 367.376 293.672 361.76L293.384 361.024L293.304 360.864C290.088 354.976 292.344 347.584 298.28 344.432L326.568 329.424C333.192 325.904 336.44 317.888 333.304 311.056C329.928 303.952 321.288 301.04 314.36 304.72L283.08 321.344C277.24 324.448 270.264 321.856 267.24 315.968C267.192 315.888 267.192 315.888 267.16 315.808C267.112 315.728 267.112 315.728 267.08 315.648C263.896 309.84 265.656 302.608 271.512 299.52L305.224 281.632C311.768 278.16 315.016 270.144 311.928 263.392C308.52 256.208 299.912 253.376 292.984 257.056L209.816 301.2L321.576 511.76L352.376 455.776C350.408 454.416 348.68 452.752 347.608 450.432Z" fill="#C034EB"/>
</g>
<g id="gold_plate">
<path id="Vector_5" d="M255.88 373.472C359.011 373.472 442.616 289.867 442.616 186.736C442.616 83.6045 359.011 0 255.88 0C152.749 0 69.144 83.6045 69.144 186.736C69.144 289.867 152.749 373.472 255.88 373.472Z" fill="#FFCC5B"/>
<path id="Vector_6" d="M281.208 165.312H162.872C153.672 165.312 146.12 157.76 146.12 148.56L146.248 147.408V147.152C146.12 137.44 154.04 129.504 163.768 129.504H245.784C256.648 129.504 266.248 121.456 266.888 110.576C267.4 99.2 258.328 89.6 246.936 89.6H160.056C150.472 89.6 143.304 81.552 143.432 71.952C143.432 71.824 143.432 71.824 143.432 71.696C143.432 71.568 143.432 71.568 143.432 71.44C143.304 61.856 150.456 53.792 160.056 53.792H250.968C261.704 53.792 271.304 45.744 271.944 34.992C272.456 23.488 263.384 14.016 251.992 14.016H185.416C117.528 42 69.688 108.752 69.688 186.736C69.688 264.72 117.528 331.456 185.432 359.408H269.96C280.696 359.408 290.296 351.36 290.936 340.608C291.448 329.104 282.376 319.648 270.984 319.648L174.824 319.632C163.48 319.632 154.344 310.144 154.952 298.656C155.512 287.904 165.176 279.824 175.944 279.824H213.224C223.944 279.52 232.6 270.736 232.6 259.936C232.6 248.944 223.656 239.984 212.648 239.984H156.136C146.936 239.984 139.384 232.448 139.512 223.232V221.824C138.872 212.752 146.168 205.072 155.24 205.072H280.056C290.92 205.072 300.52 197.024 301.16 186.272C301.672 174.784 292.584 165.312 281.208 165.312Z" fill="#FDBC4B"/>
<path id="Vector_7" d="M255.88 320.016C182.376 320.016 122.584 260.208 122.584 186.72C122.584 113.232 182.376 53.44 255.88 53.44C329.384 53.44 389.176 113.248 389.176 186.736C389.176 260.224 329.384 320.016 255.88 320.016Z" fill="#FFDB70"/>
<path id="Vector_8" opacity="0.2" d="M389.176 186.736C389.176 115.824 333.464 57.824 263.528 53.824H251.112C242.92 53.824 235.608 59.968 235.112 68.16C234.728 76.928 241.64 84.16 250.328 84.16L323.672 84.176C332.328 84.176 339.288 91.408 338.824 100.176C338.392 108.384 331.032 114.544 322.808 114.544H294.376C286.2 114.784 279.592 121.472 279.592 129.712C279.592 138.096 286.424 144.928 294.808 144.928H337.912C344.936 144.928 350.68 150.688 350.584 157.696V158.752C351.064 165.68 345.512 171.52 338.584 171.52H243.4C235.112 171.52 227.8 177.664 227.304 185.856C226.92 194.624 233.832 201.856 242.52 201.856H332.76C339.784 201.856 345.528 207.616 345.528 214.624L345.432 215.504V215.696C345.528 223.104 339.48 229.152 332.072 229.152H269.512C261.224 229.152 253.912 235.296 253.416 243.584C253.032 252.256 259.944 259.584 268.632 259.584H334.888C342.2 259.584 347.656 265.728 347.56 273.04C347.56 273.136 347.56 273.136 347.56 273.232C347.56 273.328 347.56 273.328 347.56 273.424C347.656 280.736 342.2 286.88 334.888 286.88H265.56C257.368 286.88 250.056 293.024 249.56 301.216C249.176 310 256.088 317.216 264.776 317.216H283.064C343.592 304.608 389.176 250.896 389.176 186.736Z" fill="white"/>
<path id="Vector_9" d="M348.936 157.216H284.104L264.056 95.552C261.48 87.632 250.264 87.632 247.688 95.552L227.656 157.216H162.824C154.488 157.216 151.016 167.888 157.768 172.784L210.216 210.896L190.184 272.56C187.608 280.48 196.68 287.072 203.432 282.176L255.88 244.064L308.328 282.176C315.08 287.072 324.152 280.48 321.576 272.56L301.544 210.896L353.992 172.784C360.728 167.888 357.272 157.216 348.936 157.216Z" fill="#EC9922"/>
</g>
</g>
<defs>
<clipPath id="clip0">
<rect width="511.76" height="511.76" fill="white"/>
</clipPath>
</defs>
</svg>
